<svg xmlns="http://www.w3.org/2000/svg" viewBox="0 0 1000 560" role="img" aria-label="BTC risk beta chart placeholder">
  <rect width="1000" height="560" fill="#f4f1ea" />
  <rect x="60" y="50" width="880" height="430" rx="12" fill="#ffffff" stroke="#d2c8b8" />
  <text x="90" y="95" font-family="Georgia, serif" font-size="30" fill="#0f2845">BTC Risk Beta Placeholder</text>
  <text x="90" y="128" font-family="Georgia, serif" font-size="18" fill="#6f8fa3">Swap with scraped chart from selected X post</text>
  <line x1="110" y1="430" x2="880" y2="430" stroke="#6f8fa3" stroke-width="2" />
  <line x1="110" y1="430" x2="110" y2="160" stroke="#6f8fa3" stroke-width="2" />
  <polyline fill="none" stroke="#0f3f6c" stroke-width="5" points="110,350 170,330 230,300 290,270 350,265 410,240 470,255 530,235 590,220 650,200 710,190 770,175 830,165 880,155" />
  <polyline fill="none" stroke="#6f8fa3" stroke-width="4" points="110,360 170,345 230,335 290,320 350,312 410,304 470,300 530,289 590,278 650,266 710,254 770,242 830,230 880,225" />
  <text x="120" y="458" font-family="Georgia, serif" font-size="16" fill="#0f141e">Week open</text>
  <text x="790" y="458" font-family="Georgia, serif" font-size="16" fill="#0f141e">Week close</text>
</svg>
